<svg width="809" height="809" viewBox="0 0 809 809" fill="none" xmlns="http://www.w3.org/2000/svg">
<path d="M415.295 316.711C450.379 288.37 485.222 259.731 519.819 230.795L553.143 203.271C559.007 198.462 566.627 191.97 572.691 187.546C562.583 226.484 550.315 267.432 539.32 306.311L471.376 547.653C449.474 626.156 429.568 705.206 411.673 784.717C411.618 785.371 411.581 785.975 411.543 786.63L410.341 787.517C410.531 783.356 410.355 778.843 410.866 774.836C410.387 759.058 411.144 740.1 411.297 724.146L412.713 612.788L415.295 316.711Z" fill="#010000"/>
<path d="M410.341 787.517C410.531 783.356 410.355 778.843 410.866 774.836C411.186 777.98 410.605 782.706 411.673 784.717C411.618 785.372 411.581 785.975 411.543 786.63L410.341 787.517Z" fill="#1D1C1D"/>
<path d="M234.118 186.464C287.274 228.397 339.659 273.914 392.181 316.897L395.65 759.899C396.128 761.018 396.022 777.673 396.138 779.944C396.407 781.871 396.839 786.486 396.272 788.32C395.724 786.89 395.594 787.155 395.632 785.539C395.302 784.095 394.949 782.59 394.791 781.118C393.375 776.257 392.093 769.561 390.973 764.524C388.777 754.545 386.503 744.59 384.153 734.649L367.589 662.452C362.973 643.647 358.125 624.902 353.044 606.218C314.132 466.095 274.489 326.175 234.118 186.464Z" fill="#010000"/>
<path d="M395.65 759.899C396.128 761.018 396.021 777.673 396.138 779.943C396.407 781.87 396.839 786.486 396.272 788.32C395.724 786.89 395.594 787.154 395.631 785.539C395.302 784.095 394.949 782.59 394.791 781.118C396.532 778.16 394.591 764.189 395.65 759.899Z" fill="#1D1C1D"/>
<path d="M396.138 779.944C396.407 781.871 396.839 786.486 396.273 788.32C395.725 786.89 395.595 787.155 395.632 785.539C396.05 783.203 396.036 782.335 396.138 779.944Z" fill="#7B7C7D"/>
<path d="M577.112 279.957C581.583 282.489 598.536 310.258 601.777 316.064C635.282 375.76 643.296 446.445 624.009 512.127C603.49 583.977 549.921 644.371 485.274 680.388C477.896 684.59 467.667 689.675 459.866 692.953L481.833 606.691C485.227 593.133 489.964 571.472 494.221 558.829C503.262 552.979 512.283 547.119 520.511 540.145C597.802 474.652 614.62 371.63 577.112 279.957Z" fill="#010000"/>
<path d="M229.186 280.48C229.422 281.909 225.469 291.598 224.713 293.788C220.341 306.182 216.97 318.907 214.629 331.84C208.837 361.847 209.198 392.717 215.689 422.578C225.86 468.244 250.59 509.365 286.156 539.755C295.149 547.314 303.196 552.454 313.096 558.778C315.593 570.827 320.247 587.078 323.372 599.466L347.066 692.902C338.564 688.909 329.785 684.795 321.55 680.309C303.657 670.447 286.817 658.779 271.29 645.499C175.141 564.401 142.872 429.854 204.467 317.599C211.346 305.06 219.973 291.408 229.186 280.48Z" fill="#010000"/>
<path d="M400.994 20C403.678 22.876 391.443 256.798 391.482 281.274C381.732 275.556 370.922 268.291 361.246 262.156L296.049 220.642C276.007 207.835 254.866 194.764 235.185 181.558C240.953 175.632 248.204 168.963 254.223 163.122L288.954 129.317L400.994 20Z" fill="#010000"/>
<path d="M406.557 21.1408C408.702 22.3675 417.654 31.4487 419.799 33.5512L441.506 54.6008L530.029 140.769C543.555 153.916 558.223 169.217 572.157 181.596C564.342 187.253 554.448 193.302 546.206 198.49L511.062 220.706C479.483 241 447.798 261.129 416.01 281.091C415.249 270.228 415.291 256.763 414.998 245.641C414.501 225.054 413.865 204.471 413.085 183.893L406.557 21.1408Z" fill="#010000"/>
<path d="M411.543 786.63C411.372 787.173 411.009 788.678 410.684 789.086C410.336 788.691 410.41 788.004 410.341 787.517L411.543 786.63Z" fill="#7B7C7D"/>
</svg>
