<svg width="1612" height="565" viewBox="0 0 1612 565" fill="none" xmlns="http://www.w3.org/2000/svg">
<path d="M290.039 221.189C314.542 201.396 338.876 181.394 363.038 161.186L386.311 141.963C390.407 138.605 395.728 134.07 399.963 130.981C392.904 158.175 384.336 186.773 376.657 213.925L329.206 382.477C313.909 437.303 300.007 492.511 287.51 548.041C287.471 548.498 287.445 548.92 287.419 549.377L286.579 549.996C286.712 547.091 286.589 543.939 286.946 541.14C286.612 530.121 287.14 516.881 287.247 505.739L288.236 427.967L290.039 221.189Z" fill="#010000"/>
<path d="M286.579 549.996C286.712 547.091 286.589 543.939 286.946 541.14C287.169 543.336 286.764 546.637 287.51 548.041C287.471 548.498 287.445 548.92 287.419 549.377L286.579 549.996Z" fill="#1D1C1D"/>
<path d="M163.507 130.225C200.63 159.511 237.216 191.3 273.897 221.318L276.32 530.708C276.654 531.49 276.579 543.121 276.66 544.707C276.848 546.053 277.15 549.276 276.754 550.557C276.372 549.558 276.281 549.743 276.307 548.615C276.076 547.606 275.83 546.556 275.72 545.528C274.731 542.132 273.836 537.456 273.053 533.938C271.519 526.969 269.932 520.017 268.29 513.074L256.722 462.652C253.498 449.518 250.112 436.427 246.564 423.378C219.388 325.517 191.702 227.798 163.507 130.225Z" fill="#010000"/>
<path d="M276.32 530.708C276.654 531.49 276.579 543.121 276.66 544.707C276.848 546.053 277.15 549.276 276.754 550.557C276.372 549.558 276.281 549.743 276.307 548.615C276.076 547.606 275.83 546.556 275.72 545.528C276.936 543.462 275.58 533.704 276.32 530.708Z" fill="#1D1C1D"/>
<path d="M276.66 544.707C276.848 546.053 277.15 549.276 276.754 550.557C276.372 549.559 276.281 549.743 276.307 548.615C276.599 546.984 276.589 546.377 276.66 544.707Z" fill="#7B7C7D"/>
<path d="M403.052 195.52C406.174 197.288 418.014 216.682 420.277 220.737C443.677 262.428 449.274 311.794 435.804 357.666C421.474 407.845 384.062 450.024 338.913 475.179C333.76 478.113 326.616 481.664 321.168 483.954L336.51 423.709C338.88 414.24 342.188 399.112 345.161 390.282C351.475 386.196 357.776 382.104 363.522 377.233C417.502 331.494 429.247 259.544 403.052 195.52Z" fill="#010000"/>
<path d="M160.062 195.885C160.227 196.884 157.466 203.65 156.938 205.18C153.885 213.836 151.53 222.722 149.896 231.755C145.851 252.711 146.103 274.271 150.636 295.126C157.739 327.019 175.011 355.737 199.849 376.961C206.13 382.24 211.75 385.83 218.664 390.247C220.408 398.662 223.659 410.011 225.841 418.663L242.389 483.918C236.451 481.129 230.32 478.256 224.569 475.123C212.072 468.236 200.311 460.087 189.467 450.812C122.318 394.174 99.7812 300.207 142.798 221.809C147.603 213.052 153.628 203.518 160.062 195.885Z" fill="#010000"/>
<path d="M280.052 13.9679C281.926 15.9765 273.382 179.346 273.409 196.44C266.6 192.446 259.05 187.373 252.292 183.088L206.759 154.095C192.762 145.151 177.997 136.022 164.252 126.799C168.28 122.66 173.345 118.003 177.548 113.924L201.804 90.3142L280.052 13.9679Z" fill="#010000"/>
<path d="M283.937 14.7646C285.435 15.6214 291.687 21.9636 293.185 23.432L308.345 38.1328L370.169 98.3122C379.615 107.494 389.859 118.18 399.591 126.826C394.133 130.776 387.223 135 381.467 138.624L356.922 154.139C334.868 168.313 312.739 182.371 290.539 196.312C290.007 188.725 290.036 179.321 289.832 171.554C289.485 157.176 289.041 142.801 288.496 128.43L283.937 14.7646Z" fill="#010000"/>
<path d="M287.419 549.377C287.299 549.756 287.046 550.807 286.819 551.092C286.576 550.817 286.628 550.337 286.579 549.996L287.419 549.377Z" fill="#7B7C7D"/>
<path d="M538.96 416V146.2H635.86C695.9 146.2 731.24 176.6 731.24 227.9C731.24 279.96 695.9 311.12 635.86 311.12H571.64V416H538.96ZM635.86 279.2C676.52 279.2 697.04 261.72 697.04 227.9C697.04 194.84 676.52 178.12 635.86 178.12H571.64V279.2H635.86ZM790.288 473V444.88H813.468C827.528 444.88 833.228 440.7 837.028 431.2L844.248 412.2H833.228L759.508 214.6H794.468L854.508 382.56L911.888 214.6H946.848L865.148 441.46C857.548 463.12 843.488 473 816.508 473H790.288ZM1025.55 416C1001.99 416 985.65 404.6 985.65 378L986.03 146.2H1017.95V375.34C1017.95 383.7 1022.13 387.88 1030.49 387.88H1047.97V416H1025.55ZM1169.73 420.56C1113.87 420.56 1077.39 379.52 1077.39 315.3C1077.39 251.08 1113.87 210.04 1169.73 210.04C1225.21 210.04 1261.69 251.08 1261.69 315.3C1261.69 379.52 1225.21 420.56 1169.73 420.56ZM1169.73 390.16C1206.59 390.16 1228.25 362.04 1228.25 315.3C1228.25 268.56 1206.59 240.44 1169.73 240.44C1132.49 240.44 1110.83 268.56 1110.83 315.3C1110.83 362.04 1132.49 390.16 1169.73 390.16ZM1308.13 416V214.6H1337.39L1338.15 250.7C1348.79 222.96 1372.35 210.04 1400.09 210.04C1446.07 210.04 1468.11 243.86 1468.11 286.42V416H1436.19V295.54C1436.19 258.3 1423.65 238.16 1393.25 238.16C1362.09 238.16 1340.05 258.3 1340.05 295.54V416H1308.13Z" fill="black"/>
</svg>
